<svg width="7" height="11" viewBox="0 0 7 11" fill="none" xmlns="http://www.w3.org/2000/svg">
<g clip-path="url(#clip0_6_1379)">
<path fill-rule="evenodd" clip-rule="evenodd" d="M0.700052 10.8C0.635929 10.7357 0.585229 10.6591 0.550896 10.575C0.516562 10.4908 0.49928 10.4009 0.500051 10.3101V0.689941C0.49928 0.599092 0.516562 0.509165 0.550896 0.425049C0.585229 0.340933 0.635929 0.264313 0.700052 0.199951C0.760628 0.136762 0.83336 0.0865965 0.913874 0.0522461C0.994387 0.0178957 1.08102 0 1.16855 0C1.25609 0 1.34272 0.0178957 1.42323 0.0522461C1.50374 0.0865965 1.57648 0.136762 1.63705 0.199951L6.30305 5.02002C6.42982 5.1476 6.50098 5.32014 6.50098 5.5C6.50098 5.67986 6.42982 5.8524 6.30305 5.97998L1.63705 10.8C1.57648 10.8632 1.50374 10.9134 1.42323 10.9478C1.34272 10.9821 1.25609 11 1.16855 11C1.08102 11 0.994387 10.9821 0.913874 10.9478C0.83336 10.9134 0.760628 10.8632 0.700052 10.8Z" fill="black"/>
</g>
<defs>
<clipPath id="clip0_6_1379">
<rect width="6" height="11" fill="white" transform="matrix(-1 0 0 -1 6.50098 11)"/>
</clipPath>
</defs>
</svg>
