<svg width="21" height="22" viewBox="0 0 21 22" fill="none" xmlns="http://www.w3.org/2000/svg">
<g clip-path="url(#clip0_39_4518)">
<path fill-rule="evenodd" clip-rule="evenodd" d="M1.54248 1C1.54248 0.801088 1.6215 0.610322 1.76215 0.46967C1.9028 0.329018 2.09357 0.25 2.29248 0.25H3.67448C3.99939 0.250011 4.31789 0.340477 4.5943 0.511266C4.8707 0.682055 5.0941 0.926423 5.23948 1.217L5.75648 2.25H19.4305C19.6495 2.2499 19.8646 2.30732 20.0544 2.41652C20.2443 2.52573 20.402 2.68288 20.512 2.87225C20.622 3.06161 20.6803 3.27655 20.6811 3.49553C20.6819 3.71451 20.6251 3.92985 20.5165 4.12L17.2315 9.868C17.0784 10.136 16.8572 10.3587 16.5902 10.5136C16.3233 10.6685 16.0201 10.7501 15.7115 10.75H8.20948L6.88548 12.867C6.8617 12.9049 6.8485 12.9484 6.84726 12.9931C6.84602 13.0378 6.85679 13.082 6.87844 13.1211C6.90009 13.1602 6.93183 13.1928 6.97035 13.2154C7.00888 13.2381 7.05278 13.2501 7.09748 13.25H18.2925C18.4914 13.25 18.6822 13.329 18.8228 13.4697C18.9635 13.6103 19.0425 13.8011 19.0425 14C19.0425 14.1989 18.9635 14.3897 18.8228 14.5303C18.6822 14.671 18.4914 14.75 18.2925 14.75H7.09648C5.72248 14.75 4.88448 13.238 5.61248 12.072L6.96448 9.91L4.60148 3.295L3.89848 1.888C3.87766 1.84645 3.84567 1.81153 3.8061 1.78715C3.76653 1.76277 3.72095 1.74991 3.67448 1.75H2.29248C2.09357 1.75 1.9028 1.67098 1.76215 1.53033C1.6215 1.38968 1.54248 1.19891 1.54248 1ZM6.35648 3.75L8.32148 9.25H15.7115C15.7557 9.25016 15.7992 9.23858 15.8375 9.21645C15.8758 9.19431 15.9075 9.16241 15.9295 9.124L18.9995 3.75H6.35648ZM9.29248 17.5C9.29248 17.697 9.25368 17.892 9.1783 18.074C9.10292 18.256 8.99243 18.4214 8.85314 18.5607C8.71385 18.6999 8.54849 18.8104 8.36651 18.8858C8.18452 18.9612 7.98946 19 7.79248 19C7.5955 19 7.40044 18.9612 7.21846 18.8858C7.03647 18.8104 6.87111 18.6999 6.73182 18.5607C6.59253 18.4214 6.48204 18.256 6.40666 18.074C6.33128 17.892 6.29248 17.697 6.29248 17.5C6.29248 17.1022 6.45052 16.7206 6.73182 16.4393C7.01312 16.158 7.39466 16 7.79248 16C8.19031 16 8.57184 16.158 8.85314 16.4393C9.13445 16.7206 9.29248 17.1022 9.29248 17.5ZM16.7925 19C17.1903 19 17.5718 18.842 17.8531 18.5607C18.1344 18.2794 18.2925 17.8978 18.2925 17.5C18.2925 17.1022 18.1344 16.7206 17.8531 16.4393C17.5718 16.158 17.1903 16 16.7925 16C16.3947 16 16.0131 16.158 15.7318 16.4393C15.4505 16.7206 15.2925 17.1022 15.2925 17.5C15.2925 17.8978 15.4505 18.2794 15.7318 18.5607C16.0131 18.842 16.3947 19 16.7925 19Z" fill="black"/>
</g>
<defs>
<clipPath id="clip0_39_4518">
<rect width="20" height="22" fill="white" transform="translate(0.79248)"/>
</clipPath>
</defs>
</svg>
