<svg width="18" height="22" viewBox="0 0 18 22" fill="none" xmlns="http://www.w3.org/2000/svg">
<g clip-path="url(#clip0_39_4508)">
<path fill-rule="evenodd" clip-rule="evenodd" d="M3.21729 8.5C3.21729 4.722 6.06328 1.75 9.46729 1.75C12.8713 1.75 15.7173 4.722 15.7173 8.5C15.7173 11.214 14.1223 13.661 12.4133 15.488C11.5119 16.4464 10.5214 17.317 9.45529 18.088C8.39319 17.3166 7.40676 16.446 6.50928 15.488C4.80728 13.663 3.21729 11.217 3.21729 8.501V8.5ZM9.04729 19.63L9.45429 19L9.85929 19.631C9.73833 19.7087 9.59757 19.7501 9.45378 19.7501C9.31 19.7501 9.16924 19.7087 9.04829 19.631L9.04729 19.63ZM9.04729 19.63L9.45429 19C9.85929 19.631 9.86028 19.63 9.86028 19.63H9.86229L9.86728 19.626L9.88628 19.614L9.95129 19.571L10.1873 19.409C11.3876 18.5558 12.5004 17.5858 13.5093 16.513C15.3063 14.591 17.2173 11.787 17.2173 8.5C17.2173 3.993 13.7953 0.25 9.46729 0.25C5.13929 0.25 1.71729 3.993 1.71729 8.5C1.71729 11.786 3.62129 14.59 5.41229 16.512C6.41713 17.5844 7.5259 18.5545 8.72229 19.408C8.82136 19.4777 8.92137 19.546 9.02229 19.613L9.04029 19.625L9.04629 19.629L9.04829 19.63H9.04729ZM7.21729 8C7.21729 7.40326 7.45434 6.83097 7.8763 6.40901C8.29825 5.98705 8.87055 5.75 9.46729 5.75C10.064 5.75 10.6363 5.98705 11.0583 6.40901C11.4802 6.83097 11.7173 7.40326 11.7173 8C11.7173 8.59674 11.4802 9.16903 11.0583 9.59099C10.6363 10.0129 10.064 10.25 9.46729 10.25C8.87055 10.25 8.29825 10.0129 7.8763 9.59099C7.45434 9.16903 7.21729 8.59674 7.21729 8ZM9.46729 4.25C8.47272 4.25 7.5189 4.64509 6.81563 5.34835C6.11237 6.05161 5.71729 7.00544 5.71729 8C5.71729 8.99456 6.11237 9.94839 6.81563 10.6517C7.5189 11.3549 8.47272 11.75 9.46729 11.75C10.4618 11.75 11.4157 11.3549 12.1189 10.6517C12.8222 9.94839 13.2173 8.99456 13.2173 8C13.2173 7.00544 12.8222 6.05161 12.1189 5.34835C11.4157 4.64509 10.4618 4.25 9.46729 4.25Z" fill="black"/>
</g>
<defs>
<clipPath id="clip0_39_4508">
<rect width="17" height="22" fill="white" transform="translate(0.967285)"/>
</clipPath>
</defs>
</svg>
