<svg width="20" height="22" viewBox="0 0 20 22" fill="none" xmlns="http://www.w3.org/2000/svg">
<path fill-rule="evenodd" clip-rule="evenodd" d="M9.09671 2.48101C9.43347 2.2916 9.81333 2.1921 10.1997 2.1921C10.5861 2.1921 10.9659 2.2916 11.3027 2.48101L16.3027 5.29301C16.6508 5.48881 16.9406 5.77374 17.1421 6.11855C17.3437 6.46336 17.4499 6.8556 17.4497 7.25501V16C17.4497 16.5967 17.2127 17.169 16.7907 17.591C16.3687 18.013 15.7964 18.25 15.1997 18.25H13.9497V13C13.9497 12.2707 13.66 11.5712 13.1443 11.0555C12.6285 10.5397 11.9291 10.25 11.1997 10.25H9.19971C8.47036 10.25 7.77089 10.5397 7.25516 11.0555C6.73944 11.5712 6.44971 12.2707 6.44971 13V18.25H5.19971C4.60297 18.25 4.03067 18.013 3.60872 17.591C3.18676 17.169 2.94971 16.5967 2.94971 16V7.25501C2.94955 6.8556 3.05571 6.46336 3.25728 6.11855C3.45886 5.77374 3.74859 5.48881 4.09671 5.29301L9.09671 2.48101ZM12.4497 18.25H7.94971V13C7.94971 12.31 8.50971 11.75 9.19971 11.75H11.1997C11.8897 11.75 12.4497 12.31 12.4497 13V18.25ZM6.44971 19.75H5.19971C4.20515 19.75 3.25132 19.3549 2.54806 18.6517C1.8448 17.9484 1.44971 16.9946 1.44971 16V7.25501C1.44965 6.58947 1.62672 5.93591 1.96273 5.36142C2.29874 4.78693 2.78159 4.31221 3.36171 3.98601L8.36171 1.17401C8.9229 0.858449 9.55588 0.692688 10.1997 0.692688C10.8435 0.692688 11.4765 0.858449 12.0377 1.17401L17.0377 3.98601C17.6178 4.31221 18.1007 4.78693 18.4367 5.36142C18.7727 5.93591 18.9498 6.58947 18.9497 7.25501V16C18.9497 16.9946 18.5546 17.9484 17.8514 18.6517C17.1481 19.3549 16.1943 19.75 15.1997 19.75H6.44971Z" fill="black"/>
</svg>
