<svg width="23" height="20" viewBox="0 0 23 20" fill="none" xmlns="http://www.w3.org/2000/svg">
<g clip-path="url(#clip0_6_1030)">
<g clip-path="url(#clip1_6_1030)">
<path fill-rule="evenodd" clip-rule="evenodd" d="M21.2569 6.89997H16.685L14.121 0.899969C14.0892 0.820476 14.0416 0.74823 13.9811 0.687689C13.9205 0.627148 13.8483 0.579591 13.7688 0.547796C13.6894 0.516002 13.6042 0.500657 13.5187 0.502753C13.4331 0.504848 13.3488 0.524356 13.271 0.560004C13.1124 0.632303 12.9886 0.763941 12.9263 0.926703C12.864 1.08946 12.8682 1.2703 12.938 1.43L15.277 6.89997H7.07097L9.40899 1.43C9.4793 1.27036 9.48373 1.08937 9.42138 0.926459C9.35902 0.763549 9.23491 0.631896 9.07598 0.560004C8.99814 0.524356 8.91388 0.504848 8.8283 0.502753C8.74271 0.500657 8.6576 0.516002 8.57811 0.547796C8.49863 0.579591 8.42642 0.627148 8.36589 0.687689C8.30536 0.74823 8.25772 0.820476 8.22594 0.899969L5.66198 6.89997H1.09099C0.951018 6.90053 0.8129 6.93243 0.686878 6.99335C0.560856 7.05427 0.450103 7.14267 0.36272 7.25202C0.275337 7.36137 0.21356 7.48883 0.181934 7.62519C0.150308 7.76154 0.149654 7.90333 0.179981 8.03998L2.58696 18.77C2.63264 18.9774 2.74795 19.1629 2.91368 19.2957C3.07942 19.4285 3.2856 19.5006 3.49797 19.4999H18.849C19.0614 19.5006 19.2675 19.4285 19.4333 19.2957C19.599 19.1629 19.7143 18.9774 19.7599 18.77L22.167 8.03998C22.1975 7.9034 22.1969 7.76167 22.1655 7.62531C22.134 7.48895 22.0723 7.3614 21.985 7.25202C21.8977 7.14264 21.7869 7.05428 21.6609 6.99335C21.5349 6.93243 21.3969 6.90049 21.2569 6.89997ZM5.78295 8.93C5.69473 8.9281 5.60749 8.91114 5.52495 8.87995C5.36726 8.80665 5.24434 8.6748 5.18218 8.5124C5.12002 8.34999 5.1235 8.16981 5.19194 8.00995L5.67699 6.86994H7.09099L6.37999 8.52997C6.3316 8.64749 6.24958 8.74813 6.14428 8.81928C6.03897 8.89043 5.91503 8.92895 5.78795 8.93H5.78295ZM7.94597 15.9799C7.94939 16.0668 7.93524 16.1535 7.90435 16.2348C7.87345 16.3161 7.82644 16.3904 7.76616 16.4531C7.70588 16.5158 7.63354 16.5656 7.55352 16.5997C7.47349 16.6337 7.38744 16.6513 7.30046 16.6513C7.21349 16.6513 7.12743 16.6337 7.04741 16.5997C6.96739 16.5656 6.89504 16.5158 6.83477 16.4531C6.77449 16.3904 6.72748 16.3161 6.69658 16.2348C6.66568 16.1535 6.65154 16.0668 6.65496 15.9799V11.1299C6.65154 11.043 6.66568 10.9564 6.69658 10.8751C6.72748 10.7938 6.77449 10.7195 6.83477 10.6568C6.89504 10.5941 6.96739 10.5443 7.04741 10.5102C7.12743 10.4761 7.21349 10.4586 7.30046 10.4586C7.38744 10.4586 7.47349 10.4761 7.55352 10.5102C7.63354 10.5443 7.70588 10.5941 7.76616 10.6568C7.82644 10.7195 7.87345 10.7938 7.90435 10.8751C7.93524 10.9564 7.94939 11.043 7.94597 11.1299V15.9799ZM11.819 15.9799C11.8224 16.0668 11.8082 16.1535 11.7773 16.2348C11.7464 16.3161 11.6994 16.3904 11.6391 16.4531C11.5789 16.5158 11.5066 16.5656 11.4266 16.5997C11.3465 16.6337 11.2604 16.6513 11.1735 16.6513C11.0865 16.6513 11.0004 16.6337 10.9204 16.5997C10.8404 16.5656 10.768 16.5158 10.7078 16.4531C10.6475 16.3904 10.6005 16.3161 10.5696 16.2348C10.5387 16.1535 10.5245 16.0668 10.5279 15.9799V11.1299C10.5245 11.043 10.5387 10.9564 10.5696 10.8751C10.6005 10.7938 10.6475 10.7195 10.7078 10.6568C10.768 10.5941 10.8404 10.5443 10.9204 10.5102C11.0004 10.4761 11.0865 10.4586 11.1735 10.4586C11.2604 10.4586 11.3465 10.4761 11.4266 10.5102C11.5066 10.5443 11.5789 10.5941 11.6391 10.6568C11.6994 10.7195 11.7464 10.7938 11.7773 10.8751C11.8082 10.9564 11.8224 11.043 11.819 11.1299V15.9799ZM15.6919 15.9799C15.6954 16.0668 15.6812 16.1535 15.6503 16.2348C15.6194 16.3161 15.5724 16.3904 15.5121 16.4531C15.4519 16.5158 15.3796 16.5656 15.2995 16.5997C15.2195 16.6337 15.1335 16.6513 15.0465 16.6513C14.9595 16.6513 14.8734 16.6337 14.7934 16.5997C14.7134 16.5656 14.6411 16.5158 14.5808 16.4531C14.5205 16.3904 14.4735 16.3161 14.4426 16.2348C14.4117 16.1535 14.3976 16.0668 14.401 15.9799V11.1299C14.3976 11.043 14.4117 10.9564 14.4426 10.8751C14.4735 10.7938 14.5205 10.7195 14.5808 10.6568C14.6411 10.5941 14.7134 10.5443 14.7934 10.5102C14.8734 10.4761 14.9595 10.4586 15.0465 10.4586C15.1335 10.4586 15.2195 10.4761 15.2995 10.5102C15.3796 10.5443 15.4519 10.5941 15.5121 10.6568C15.5724 10.7195 15.6194 10.7938 15.6503 10.8751C15.6812 10.9564 15.6954 11.043 15.6919 11.1299V15.9799ZM16.8219 8.87995C16.7394 8.91114 16.6522 8.9281 16.564 8.93C16.4369 8.92895 16.3129 8.89043 16.2076 8.81928C16.1023 8.74813 16.0204 8.64749 15.972 8.52997L15.262 6.86994H16.6709L17.155 8.00995C17.2234 8.16981 17.2269 8.34999 17.1648 8.5124C17.1026 8.6748 16.9796 8.80665 16.8219 8.87995Z" fill="white"/>
</g>
</g>
<defs>
<clipPath id="clip0_6_1030">
<rect width="22" height="19" fill="white" transform="translate(0.160034 0.5)"/>
</clipPath>
<clipPath id="clip1_6_1030">
<rect width="22" height="19" fill="white" transform="translate(0.157715 0.5)"/>
</clipPath>
</defs>
</svg>
