<svg width="7" height="11" viewBox="0 0 7 11" fill="none" xmlns="http://www.w3.org/2000/svg">
<g clip-path="url(#clip0_6_1376)">
<path fill-rule="evenodd" clip-rule="evenodd" d="M6.29995 0.199951C6.36407 0.264313 6.41477 0.340933 6.4491 0.425049C6.48344 0.509165 6.50072 0.599092 6.49995 0.689941V10.3101C6.50072 10.4009 6.48344 10.4908 6.4491 10.575C6.41477 10.6591 6.36407 10.7357 6.29995 10.8C6.23937 10.8632 6.16664 10.9134 6.08613 10.9478C6.00561 10.9821 5.91898 11 5.83145 11C5.74391 11 5.65728 10.9821 5.57677 10.9478C5.49626 10.9134 5.42352 10.8632 5.36295 10.8L0.696949 5.97998C0.570176 5.8524 0.499023 5.67986 0.499023 5.5C0.499023 5.32014 0.570176 5.1476 0.696949 5.02002L5.36295 0.199951C5.42352 0.136762 5.49626 0.0865962 5.57677 0.0522461C5.65728 0.017896 5.74391 0 5.83145 0C5.91898 0 6.00561 0.017896 6.08613 0.0522461C6.16664 0.0865962 6.23937 0.136762 6.29995 0.199951Z" fill="black"/>
</g>
<defs>
<clipPath id="clip0_6_1376">
<rect width="6" height="11" fill="white" transform="translate(0.499023)"/>
</clipPath>
</defs>
</svg>
