<svg width="14" height="12" viewBox="0 0 14 12" fill="none" xmlns="http://www.w3.org/2000/svg">
<g clip-path="url(#clip0_2_1040)">
<path fill-rule="evenodd" clip-rule="evenodd" d="M11.3154 6.543C11.2627 6.54461 11.2108 6.55663 11.1628 6.57837C11.1147 6.6001 11.0714 6.63112 11.0354 6.66965C10.9994 6.70817 10.9714 6.75344 10.9529 6.80284C10.9345 6.85224 10.926 6.9048 10.9279 6.9575V11.1695H3.0654V6.9575C3.06923 6.90428 3.06205 6.85082 3.04431 6.80049C3.02657 6.75016 2.99867 6.70403 2.96231 6.66496C2.92595 6.6259 2.88194 6.59474 2.83301 6.57344C2.78408 6.55214 2.73128 6.54114 2.67792 6.54114C2.62455 6.54114 2.57176 6.55214 2.52283 6.57344C2.4739 6.59474 2.42988 6.6259 2.39352 6.66496C2.35717 6.70403 2.32923 6.75016 2.31149 6.80049C2.29375 6.85082 2.28658 6.90428 2.29041 6.9575V11.5845C2.2884 11.6372 2.29685 11.6899 2.31528 11.7393C2.3337 11.7888 2.36175 11.8341 2.39777 11.8727C2.43379 11.9113 2.47706 11.9423 2.52515 11.9641C2.57323 11.9858 2.62516 11.9979 2.67792 11.9995H11.3154C11.3682 11.9979 11.4201 11.9858 11.4682 11.9641C11.5163 11.9423 11.5595 11.9113 11.5956 11.8727C11.6316 11.8341 11.6596 11.7888 11.678 11.7393C11.6965 11.6899 11.7049 11.6372 11.7029 11.5845V6.9575C11.7048 6.9048 11.6963 6.85224 11.6779 6.80284C11.6594 6.75344 11.6314 6.70817 11.5954 6.66965C11.5594 6.63112 11.5161 6.6001 11.468 6.57837C11.42 6.55663 11.3681 6.54461 11.3154 6.543ZM13.3784 6.664L7.26892 0.121002C7.23427 0.0823874 7.19185 0.0515073 7.14447 0.030365C7.09709 0.00922265 7.04578 -0.00170898 6.9939 -0.00170898C6.94201 -0.00170898 6.89073 0.00922265 6.84335 0.030365C6.79597 0.0515073 6.75356 0.0823874 6.7189 0.121002L0.610413 6.664C0.537332 6.74428 0.496826 6.84894 0.496826 6.9575C0.496826 7.06607 0.537332 7.17073 0.610413 7.25101C0.645066 7.28962 0.687452 7.3205 0.734833 7.34164C0.782214 7.36279 0.833522 7.3737 0.885406 7.3737C0.937291 7.3737 0.988599 7.36279 1.03598 7.34164C1.08336 7.3205 1.12575 7.28962 1.1604 7.25101L6.99442 1L12.8299 7.25C12.8645 7.28868 12.9069 7.31963 12.9543 7.34082C13.0017 7.36201 13.053 7.37296 13.1049 7.37296C13.1568 7.37296 13.2081 7.36201 13.2555 7.34082C13.3029 7.31963 13.3453 7.28868 13.3799 7.25C13.4522 7.16943 13.4921 7.06488 13.4917 6.95662C13.4913 6.84835 13.4508 6.74408 13.3779 6.664H13.3784Z" fill="black"/>
</g>
<defs>
<clipPath id="clip0_2_1040">
<rect width="13" height="12" fill="white" transform="translate(0.496826 -0.00170898)"/>
</clipPath>
</defs>
</svg>
