<svg width="21" height="22" viewBox="0 0 21 22" fill="none" xmlns="http://www.w3.org/2000/svg">
<path fill-rule="evenodd" clip-rule="evenodd" d="M10.5 1.75C8.93355 1.74998 7.39946 2.19593 6.07713 3.03569C4.7548 3.87545 3.69887 5.07433 3.03282 6.49212C2.36677 7.90992 2.11812 9.48804 2.31596 11.0419C2.5138 12.5959 3.14994 14.0613 4.15 15.267C5.597 13.787 7.542 12.566 10.5 12.566C13.457 12.566 15.402 13.776 16.851 15.266C17.8508 14.0602 18.4867 12.5948 18.6843 11.0409C18.882 9.4871 18.6332 7.90911 17.967 6.49146C17.3009 5.07381 16.245 3.87509 14.9227 3.03545C13.6004 2.19581 12.0664 1.74995 10.5 1.75ZM15.793 16.329C14.549 15.044 12.963 14.066 10.5 14.066C8.04 14.066 6.453 15.05 5.208 16.329C6.69076 17.5725 8.56483 18.2528 10.5 18.25C12.514 18.25 14.36 17.528 15.793 16.329ZM0.75 10C0.75 4.615 5.115 0.25 10.5 0.25C15.885 0.25 20.25 4.615 20.25 10C20.25 15.385 15.885 19.75 10.5 19.75C5.115 19.75 0.75 15.385 0.75 10ZM10.5 5.54C10.1588 5.53326 9.81975 5.59464 9.50259 5.72055C9.18543 5.84645 8.89657 6.03435 8.65291 6.27324C8.40925 6.51214 8.21569 6.79723 8.08355 7.11185C7.95141 7.42646 7.88335 7.76427 7.88335 8.1055C7.88335 8.44674 7.95141 8.78454 8.08355 9.09915C8.21569 9.41376 8.40925 9.69886 8.65291 9.93776C8.89657 10.1767 9.18543 10.3646 9.50259 10.4905C9.81975 10.6164 10.1588 10.6777 10.5 10.671C11.1805 10.671 11.8332 10.4007 12.3144 9.91944C12.7957 9.43822 13.066 8.78555 13.066 8.105C13.066 7.42445 12.7957 6.77178 12.3144 6.29056C11.8332 5.80935 11.1805 5.54 10.5 5.54ZM6.434 8.104C6.434 7.02563 6.86238 5.99143 7.6249 5.2289C8.38743 4.46638 9.42163 4.038 10.5 4.038C11.5784 4.038 12.6126 4.46638 13.3751 5.2289C14.1376 5.99143 14.566 7.02563 14.566 8.104C14.566 9.18237 14.1376 10.2166 13.3751 10.9791C12.6126 11.7416 11.5784 12.17 10.5 12.17C9.42163 12.17 8.38743 11.7416 7.6249 10.9791C6.86238 10.2166 6.434 9.18237 6.434 8.104Z" fill="black"/>
</svg>
