<svg width="25" height="22" viewBox="0 0 25 22" fill="none" xmlns="http://www.w3.org/2000/svg">
<g clip-path="url(#clip0_39_4513)">
<path fill-rule="evenodd" clip-rule="evenodd" d="M1.65479 0.25C1.45587 0.25 1.26511 0.329018 1.12446 0.46967C0.983803 0.610322 0.904785 0.801088 0.904785 1C0.904785 1.19891 0.983803 1.38968 1.12446 1.53033C1.26511 1.67098 1.45587 1.75 1.65479 1.75H14.6548C14.8537 1.75 15.0445 1.67098 15.1851 1.53033C15.3258 1.38968 15.4048 1.19891 15.4048 1C15.4048 0.801088 15.3258 0.610322 15.1851 0.46967C15.0445 0.329018 14.8537 0.25 14.6548 0.25H1.65479ZM11.4048 9.02C11.4048 8.31839 11.5778 7.6276 11.9083 7.00872C12.2388 6.38984 12.7168 5.86195 13.2999 5.47172C13.8829 5.0815 14.5532 4.84096 15.2514 4.77139C15.9495 4.70181 16.6541 4.80534 17.3027 5.07283C17.9513 5.34031 18.524 5.7635 18.9702 6.30498C19.4164 6.84645 19.7222 7.48953 19.8607 8.17733C19.9993 8.86513 19.9662 9.57647 19.7644 10.2484C19.5626 10.9204 19.1983 11.5323 18.7038 12.03L18.6938 12.04L18.6858 12.049C18.0875 12.6435 17.3266 13.0476 16.499 13.2102C15.6714 13.3728 14.8142 13.2867 14.0355 12.9627C13.2568 12.6387 12.5914 12.0913 12.1234 11.3897C11.6554 10.688 11.4057 9.86343 11.4058 9.02H11.4048ZM21.4448 9.02C21.4467 10.2915 21.0268 11.5277 20.2508 12.535L23.1848 15.47C23.3173 15.6122 23.3894 15.8002 23.386 15.9945C23.3825 16.1888 23.3038 16.3742 23.1664 16.5116C23.029 16.649 22.8436 16.7277 22.6493 16.7312C22.455 16.7346 22.267 16.6625 22.1248 16.53L19.1908 13.596C18.1579 14.3898 16.8868 14.8107 15.5843 14.7903C14.2818 14.7699 13.0245 14.3093 12.017 13.4835C11.0096 12.6577 10.3112 11.5153 10.0355 10.2421C9.75979 8.96897 9.92303 7.63998 10.4986 6.47139C11.0743 5.30279 12.0284 4.36337 13.2058 3.80594C14.3831 3.24852 15.7145 3.10591 16.9832 3.40131C18.252 3.69671 19.3834 4.41274 20.1935 5.43291C21.0035 6.45307 21.4446 7.71733 21.4448 9.02ZM0.904785 7C0.904785 6.80109 0.983803 6.61032 1.12446 6.46967C1.26511 6.32902 1.45587 6.25 1.65479 6.25H5.65479C5.8537 6.25 6.04446 6.32902 6.18512 6.46967C6.32577 6.61032 6.40479 6.80109 6.40479 7C6.40479 7.19891 6.32577 7.38968 6.18512 7.53033C6.04446 7.67098 5.8537 7.75 5.65479 7.75H1.65479C1.45587 7.75 1.26511 7.67098 1.12446 7.53033C0.983803 7.38968 0.904785 7.19891 0.904785 7ZM1.65479 12.25C1.45587 12.25 1.26511 12.329 1.12446 12.4697C0.983803 12.6103 0.904785 12.8011 0.904785 13C0.904785 13.1989 0.983803 13.3897 1.12446 13.5303C1.26511 13.671 1.45587 13.75 1.65479 13.75H7.65479C7.8537 13.75 8.04446 13.671 8.18511 13.5303C8.32577 13.3897 8.40479 13.1989 8.40479 13C8.40479 12.8011 8.32577 12.6103 8.18511 12.4697C8.04446 12.329 7.8537 12.25 7.65479 12.25H1.65479Z" fill="black"/>
</g>
<defs>
<clipPath id="clip0_39_4513">
<rect width="24" height="22" fill="white" transform="translate(0.154785)"/>
</clipPath>
</defs>
</svg>
