<svg width="34" height="33" viewBox="0 0 34 33" fill="none" xmlns="http://www.w3.org/2000/svg">
<g clip-path="url(#clip0_6_829)">
<path fill-rule="evenodd" clip-rule="evenodd" d="M33.53 16.516C33.5333 13.7713 32.8516 11.0692 31.5466 8.65448C30.2415 6.23975 28.3543 4.18872 26.0562 2.68725C23.7581 1.18577 21.1218 0.281299 18.3858 0.0557824C15.6498 -0.169734 12.9006 0.290833 10.3876 1.39575C7.87457 2.50067 5.6771 4.21502 3.99413 6.38347C2.31117 8.55191 1.19595 11.1059 0.749574 13.8141C0.303195 16.5222 0.539875 19.299 1.43791 21.8926C2.33595 24.4863 3.86696 26.815 5.89248 28.6676L5.87183 28.6821L6.4081 29.1316C6.44935 29.1625 6.47008 29.1873 6.51133 29.2141C6.80008 29.4533 7.08869 29.6739 7.39806 29.8904C7.49036 29.9645 7.5868 30.0334 7.68684 30.0966C8.00572 30.3201 8.33614 30.5266 8.6768 30.7153C8.73868 30.7586 8.82138 30.7998 8.88325 30.8431C9.2545 31.0493 9.6256 31.2555 10.0175 31.4308C10.0381 31.4452 10.0794 31.4576 10.1001 31.47C11.3744 32.0599 12.719 32.484 14.1012 32.7319C14.135 32.7415 14.1696 32.7484 14.2044 32.7526C14.6375 32.8288 15.0707 32.8886 15.5244 32.9278L15.6894 32.9402C16.1225 32.9753 16.5763 33 17.03 33C17.4838 33 17.917 32.9773 18.3707 32.9423C18.412 32.9423 18.4737 32.9423 18.5356 32.9299C18.9687 32.8886 19.4019 32.8309 19.835 32.7567L19.9589 32.7361C21.3116 32.4887 22.6279 32.0731 23.8774 31.4988C23.9273 31.4817 23.9757 31.4603 24.0219 31.4349C24.3932 31.2617 24.7439 31.074 25.1151 30.874L25.3626 30.7235C25.6926 30.5317 26.0019 30.3338 26.3113 30.1234C26.4254 30.0511 26.5357 29.9727 26.6413 29.8884C26.9095 29.6987 27.1776 29.5028 27.4251 29.2986C27.487 29.2553 27.5281 29.2161 27.59 29.1708L28.1469 28.713L28.1263 28.6986C29.8275 27.1574 31.1872 25.2772 32.1178 23.1791C33.0485 21.0809 33.5295 18.8112 33.53 16.516ZM1.72619 16.516C1.72334 13.96 2.36124 11.444 3.58123 9.19772C4.80122 6.95149 6.56448 5.04661 8.71029 3.65705C10.8561 2.2675 13.3159 1.43754 15.8651 1.24298C18.4143 1.04842 20.9717 1.49546 23.3036 2.54327C25.6355 3.59107 27.6675 5.20626 29.2144 7.24132C30.7613 9.27639 31.7736 11.6665 32.1589 14.1933C32.5441 16.7202 32.2901 19.3033 31.4199 21.7067C30.5498 24.1101 29.0914 26.2573 27.1776 27.9521C27.0058 27.8338 26.8266 27.7264 26.6413 27.6304L21.5674 25.0921C21.3448 24.9813 21.1575 24.8108 21.0264 24.5996C20.8952 24.3883 20.8254 24.1447 20.825 23.8961V22.1227C20.9569 21.9655 21.0809 21.8017 21.1963 21.632C21.8597 20.686 22.3874 19.6518 22.7638 18.5595C23.1395 18.3842 23.4574 18.1055 23.6803 17.7559C23.9031 17.4064 24.0216 17.0006 24.0219 16.5861V14.454C24.0136 13.9325 23.824 13.4302 23.4857 13.0332V10.235C23.5852 8.95887 23.1775 7.69491 22.3512 6.71719C20.8502 5.48825 18.9701 4.81673 17.03 4.81673C15.09 4.81673 13.2098 5.48825 11.7089 6.71719C10.8827 7.69502 10.4751 8.9589 10.5744 10.235V13.0353C10.2359 13.4322 10.0463 13.9345 10.0381 14.456V16.582C10.0409 16.9057 10.1145 17.2249 10.2534 17.5173C10.3923 17.8097 10.5933 18.0683 10.8425 18.2749C11.2244 19.6544 11.8533 20.9532 12.6988 22.1083V23.8445C12.6983 24.0826 12.635 24.3164 12.5155 24.5223C12.3961 24.7283 12.2245 24.8991 12.018 25.0178L7.27444 27.6057C7.11474 27.6871 6.96291 27.7831 6.82075 27.8923C5.21633 26.4632 3.93284 24.7105 3.05478 22.7497C2.17671 20.7889 1.72379 18.6644 1.72619 16.516Z" fill="black"/>
</g>
<defs>
<clipPath id="clip0_6_829">
<rect width="33" height="33" fill="white" transform="translate(0.530029)"/>
</clipPath>
</defs>
</svg>
