<svg width="20" height="19" viewBox="0 0 20 19" fill="none" xmlns="http://www.w3.org/2000/svg">
<g clip-path="url(#clip0_346_227)">
<path fill-rule="evenodd" clip-rule="evenodd" d="M9.5 0C11.28 0 13.0201 0.527837 14.5001 1.51677C15.9802 2.5057 17.1338 3.91131 17.8149 5.55585C18.4961 7.20038 18.6743 9.00998 18.327 10.7558C17.9798 12.5016 17.1227 14.1053 15.864 15.364C14.6053 16.6226 13.0017 17.4798 11.2559 17.8271C9.51003 18.1743 7.70044 17.9961 6.05591 17.3149C4.41137 16.6337 3.00566 15.4802 2.01672 14.0001C1.02779 12.5201 0.5 10.78 0.5 9C0.5 6.61305 1.44816 4.32386 3.13599 2.63603C4.82381 0.948205 7.11305 0 9.5 0ZM9.5 3C10.6867 3 11.8467 3.3519 12.8334 4.01118C13.8201 4.67047 14.5892 5.60755 15.0433 6.7039C15.4975 7.80026 15.6163 9.00666 15.3848 10.1705C15.1533 11.3344 14.5818 12.4035 13.7427 13.2426C12.9036 14.0818 11.8344 14.6532 10.6705 14.8847C9.50665 15.1162 8.30021 14.9974 7.20386 14.5433C6.1075 14.0891 5.17052 13.3201 4.51123 12.3334C3.85194 11.3467 3.5 10.1867 3.5 9C3.5 7.4087 4.13211 5.88257 5.25732 4.75735C6.38254 3.63214 7.9087 3 9.5 3Z" fill="#17141E"/>
<path fill-rule="evenodd" clip-rule="evenodd" d="M16.37 13.411L18.96 15.938C19.1286 16.1025 19.2626 16.2991 19.3541 16.5162C19.4456 16.7333 19.4927 16.9664 19.4927 17.202C19.4927 17.4376 19.4456 17.6708 19.3541 17.8878C19.2626 18.1049 19.1286 18.3015 18.96 18.466C18.6126 18.8019 18.1483 18.9897 17.665 18.9897C17.1818 18.9897 16.7174 18.8019 16.37 18.466L13.79 15.938C13.6215 15.7736 13.4875 15.5771 13.396 15.3601C13.3045 15.1431 13.2574 14.91 13.2574 14.6745C13.2574 14.439 13.3045 14.2059 13.396 13.9889C13.4875 13.7719 13.6215 13.5754 13.79 13.411C14.1358 13.0757 14.5984 12.8882 15.08 12.8882C15.5616 12.8882 16.0243 13.0757 16.37 13.411Z" fill="#17141E"/>
</g>
<defs>
<clipPath id="clip0_346_227">
<rect width="19" height="19" fill="white" transform="translate(0.5)"/>
</clipPath>
</defs>
</svg>
